<svg width="22" height="22" viewBox="0 0 22 22" fill="none" xmlns="http://www.w3.org/2000/svg">
<path d="M10.9977 7.3555C8.99066 7.3555 7.35277 8.99339 7.35277 11.0004C7.35277 13.0075 8.99066 14.6453 10.9977 14.6453C13.0047 14.6453 14.6426 13.0075 14.6426 11.0004C14.6426 8.99339 13.0047 7.3555 10.9977 7.3555ZM21.9297 11.0004C21.9297 9.49105 21.9434 7.99534 21.8586 6.4887C21.7739 4.7387 21.3746 3.18558 20.095 1.90589C18.8125 0.623469 17.2621 0.226985 15.5121 0.14222C14.0028 0.0574539 12.5071 0.0711258 11.0004 0.0711258C9.49105 0.0711258 7.99534 0.0574539 6.4887 0.14222C4.7387 0.226985 3.18558 0.626204 1.90589 1.90589C0.62347 3.18831 0.226985 4.7387 0.14222 6.4887C0.0574539 7.99808 0.0711258 9.49378 0.0711258 11.0004C0.0711258 12.5071 0.0574539 14.0055 0.14222 15.5121C0.226985 17.2621 0.626204 18.8153 1.90589 20.095C3.18831 21.3774 4.7387 21.7739 6.4887 21.8586C7.99808 21.9434 9.49378 21.9297 11.0004 21.9297C12.5098 21.9297 14.0055 21.9434 15.5121 21.8586C17.2621 21.7739 18.8153 21.3746 20.095 20.095C21.3774 18.8125 21.7739 17.2621 21.8586 15.5121C21.9461 14.0055 21.9297 12.5098 21.9297 11.0004ZM10.9977 16.6086C7.89417 16.6086 5.38948 14.1039 5.38948 11.0004C5.38948 7.89691 7.89417 5.39222 10.9977 5.39222C14.1012 5.39222 16.6059 7.89691 16.6059 11.0004C16.6059 14.1039 14.1012 16.6086 10.9977 16.6086ZM16.8356 6.4723C16.111 6.4723 15.5258 5.88714 15.5258 5.16253C15.5258 4.43792 16.111 3.85277 16.8356 3.85277C17.5602 3.85277 18.1453 4.43792 18.1453 5.16253C18.1456 5.33459 18.1118 5.50501 18.0461 5.66401C17.9803 5.82302 17.8839 5.96749 17.7622 6.08916C17.6405 6.21082 17.4961 6.30729 17.3371 6.37304C17.1781 6.43878 17.0076 6.47251 16.8356 6.4723Z" fill="black"/>
</svg>
