<svg width="24" height="24" viewBox="0 0 24 24" fill="none" xmlns="http://www.w3.org/2000/svg">
<path d="M11.9966 0.480469C5.63416 0.480469 0.476562 5.63807 0.476562 12.0005C0.476562 18.3629 5.63416 23.5205 11.9966 23.5205C18.359 23.5205 23.5166 18.3629 23.5166 12.0005C23.5166 5.63807 18.359 0.480469 11.9966 0.480469ZM9.17656 16.7753H6.84376V9.26807H9.17656V16.7753ZM7.99576 8.34647C7.25896 8.34647 6.78256 7.82447 6.78256 7.17887C6.78256 6.52007 7.27336 6.01367 8.02576 6.01367C8.77816 6.01367 9.23896 6.52007 9.25336 7.17887C9.25336 7.82447 8.77816 8.34647 7.99576 8.34647ZM17.6966 16.7753H15.3638V12.6149C15.3638 11.6465 15.0254 10.9889 14.1818 10.9889C13.5374 10.9889 13.1546 11.4341 12.9854 11.8625C12.923 12.0149 12.9074 12.2309 12.9074 12.4457V16.7741H10.5734V11.6621C10.5734 10.7249 10.5434 9.94127 10.5122 9.26687H12.539L12.6458 10.3097H12.6926C12.9998 9.82007 13.7522 9.09767 15.011 9.09767C16.5458 9.09767 17.6966 10.1261 17.6966 12.3365V16.7753Z" fill="black"/>
</svg>
