<svg width="31" height="31" viewBox="0 0 31 31" fill="none" xmlns="http://www.w3.org/2000/svg">
<path d="M3.7901 1.91303L0.0240267 5.58495H31L27.2339 1.91303V0.783203H3.7901V1.91303Z" fill="#F0AE11"/>
<path fill-rule="evenodd" clip-rule="evenodd" d="M31 6.71477H0.0240267C-0.164046 8.78611 0.758411 10.6315 2.56613 11.2341V27.8048H0.0240267V30.2171H31V27.8048H28.2698V11.2341C30.3412 10.4808 31 8.97442 31 6.71477ZM4.82602 27.8048L4.63772 11.2341C6.52075 10.9516 7.65058 9.25687 7.74473 7.84459C9.25116 12.7405 14.5237 12.2697 15.4652 7.84459C16.7833 13.0229 22.5266 11.9873 23.1856 7.84459C23.4053 8.75473 24.2966 10.7068 26.1044 11.2341V27.8048H4.82602Z" fill="#F0AE11"/>
<path fill-rule="evenodd" clip-rule="evenodd" d="M16.6068 22.3721L16.0851 21.6339C15.966 21.4658 15.7159 21.4658 15.5969 21.6339L15.0745 22.3721C15.0012 22.4757 15.0012 22.6135 15.0745 22.7171L15.5969 23.4553C15.7159 23.6241 15.966 23.6241 16.0851 23.4553L16.6068 22.7171C16.6801 22.6142 16.6801 22.4764 16.6068 22.3721Z" fill="#F0AE11"/>
<path fill-rule="evenodd" clip-rule="evenodd" d="M15.8514 20.5731C17.8343 20.5731 19.4922 19.1564 19.8674 17.2819C17.8658 16.1711 18.1805 14.3537 18.1805 14.0666C18.1805 13.7116 17.537 13.4238 15.8515 13.4238C14.1659 13.4238 13.5218 13.7116 13.5218 14.0666C13.5218 14.3537 13.8364 16.1717 11.8348 17.2819C12.2107 19.1565 13.8686 20.5731 15.8514 20.5731ZM21.2189 17.8084C21.5141 17.8864 21.7172 18.1614 21.7024 18.466C21.502 22.6016 18.1805 25.4733 15.8515 25.4733C13.5218 25.4733 10.201 22.6016 10.0007 18.466C9.98658 18.1607 10.189 17.8857 10.4841 17.8084C10.7013 17.7513 10.9037 17.6881 11.0913 17.6188C11.533 19.459 13.0108 20.8998 14.8745 21.2785L14.4294 21.9085C14.1598 22.2897 14.1598 22.8007 14.4294 23.1813L14.9519 23.9195C15.1583 24.2113 15.4945 24.3848 15.8522 24.3848C16.2092 24.3848 16.5454 24.2107 16.7518 23.9195L17.2742 23.1813C17.5432 22.8007 17.5432 22.2897 17.2742 21.9085L16.8285 21.2785C18.6915 20.9 20.1701 19.4591 20.6117 17.6188C20.7993 17.6874 21.0011 17.7506 21.2189 17.8084Z" fill="#F0AE11"/>
</svg>
