<?xml version="1.0" encoding="UTF-8"?>
<svg xmlns="http://www.w3.org/2000/svg" id="Layer_1" data-name="Layer 1" viewBox="0 0 24 24">
  <path d="m4,14.949v5.551c0,.276.224.5.5.5h7.5v3h-7.5c-1.93,0-3.5-1.57-3.5-3.5v-7.206c-.616-.77-1-1.733-1-2.794l.036-.325L2.297,0h19.406l2.297,10.5c0,.798-.226,1.537-.592,2.187-.537-1.021-1.398-1.846-2.469-2.296l-1.643-7.391h-2.297v3h-3v-3h-4v3h-3v-3h-2.297l-1.697,7.637c.069.763.713,1.363,1.494,1.363h1c.651,0,1.201-.419,1.408-1h3.184c.207.581.757,1,1.408,1h1c.651,0,1.201-.419,1.408-1h2.12c-1.147.857-1.912,2.191-2,3.715-.479.175-.99.285-1.529.285h-1c-1.157,0-2.202-.451-3-1.17-.798.72-1.843,1.17-3,1.17h-1c-.171,0-.334-.032-.5-.051Zm17,4.051h-4c-1.654,0-3,1.346-3,3v2h10v-2c0-1.654-1.346-3-3-3Zm-5-4c0,1.654,1.346,3,3,3s3-1.346,3-3-1.346-3-3-3-3,1.346-3,3Z"/>
</svg>
